<svg version="1.0" xmlns="http://www.w3.org/2000/svg"
     width="300.000000pt" height="200.000000pt" viewBox="0 0 300.000000 200.000000"
     preserveAspectRatio="xMidYMid meet" >
    <g transform="translate(0.000000,200.000000) scale(0.100000,-0.100000)"
       fill="#cd5c5c" >
        <path d="M952 1393 c-75 -37 -98 -116 -62 -213 12 -33 20 -64 16 -68 -4 -3
-38 -5 -75 -3 -105 4 -184 -37 -197 -104 -6 -34 17 -95 37 -95 5 0 3 -10 -5
-22 -9 -12 -16 -41 -16 -64 0 -34 6 -49 30 -73 17 -16 39 -33 50 -36 15 -5 20
-15 20 -39 0 -67 78 -102 167 -73 26 8 64 18 84 21 20 4 54 20 74 36 21 17 43
30 50 30 14 0 65 39 52 40 -4 0 -22 -7 -39 -16 -28 -15 -30 -15 -24 0 15 39
17 51 4 31 -19 -29 -87 -95 -99 -95 -6 0 -6 7 1 19 13 25 13 77 0 101 -5 10
-24 23 -41 29 -17 6 -28 15 -24 21 4 6 22 2 48 -11 l42 -22 -54 51 -54 50 7
56 c4 31 5 65 1 76 -8 25 -55 50 -92 49 l-28 -1 29 -8 c86 -26 89 -97 6 -140
-35 -18 -129 -17 -166 3 -71 37 -54 117 32 153 20 8 69 14 124 14 l90 0 0 29
c0 15 -11 49 -25 75 -37 70 -34 110 14 157 28 29 47 39 70 39 45 0 57 -31 43
-113 -12 -77 -1 -140 32 -181 35 -44 51 -28 19 18 -26 36 -28 46 -29 148 -2
89 -5 113 -19 128 -22 24 -49 25 -93 3z m-35 -523 c27 -53 -31 -114 -120 -126
-78 -11 -127 20 -127 81 0 55 12 62 92 58 40 -3 84 0 98 5 32 14 42 10 57 -18z
m62 -106 c26 -34 26 -54 0 -88 -30 -38 -71 -56 -125 -56 -56 0 -84 20 -84 62
0 24 4 28 28 28 33 0 131 47 139 66 8 21 19 17 42 -12z"/>
        <path d="M1866 1020 l-44 -59 -6 31 c-3 17 -6 41 -6 53 0 18 -6 22 -30 23 -36
1 -37 -6 -12 -98 13 -48 16 -75 9 -100 -12 -47 0 -140 20 -147 21 -8 30 10 32
70 3 80 17 119 71 191 38 51 46 68 35 72 -8 4 -12 10 -9 15 3 5 0 9 -5 9 -6 0
-31 -27 -55 -60z m42 1 c-13 -17 -27 -30 -31 -30 -5 -1 2 12 15 28 13 17 27
30 31 30 5 1 -2 -12 -15 -28z m-88 -106 c0 -51 -15 -50 -17 1 -1 26 2 42 7 39
6 -4 10 -21 10 -40z m30 25 c0 -5 -5 -10 -11 -10 -5 0 -7 5 -4 10 3 6 8 10 11
10 2 0 4 -4 4 -10z m-43 -102 c-3 -8 -6 -5 -6 6 -1 11 2 17 5 13 3 -3 4 -12 1
-19z"/>
        <path d="M1120 1044 c0 -10 -5 -14 -16 -10 -8 3 -12 2 -9 -4 3 -5 -13 -14 -35
-20 -29 -8 -40 -16 -40 -30 0 -15 6 -18 31 -15 25 4 29 1 25 -13 -13 -40 -25
-206 -16 -221 7 -12 9 -6 10 22 0 23 5 40 14 43 8 3 17 24 21 47 4 23 11 60
17 83 9 39 11 41 69 53 62 14 85 29 46 29 -12 0 -45 2 -74 3 l-51 2 15 24 c10
14 11 23 4 23 -6 0 -11 -7 -11 -16z m-8 -66 c-6 -6 -16 -7 -22 -3 -9 6 -9 9 1
16 17 10 34 0 21 -13z m-22 -138 c-5 -22 -8 -27 -9 -13 -1 21 9 56 14 51 2 -2
0 -19 -5 -38z"/>
        <path d="M1366 1008 c-3 -7 -6 -52 -8 -100 -3 -50 -10 -93 -17 -102 -17 -20
-6 -36 24 -34 13 1 22 6 19 10 -3 4 5 12 16 18 22 12 28 42 6 34 -11 -4 -14
12 -12 87 1 66 -3 93 -11 96 -7 3 -15 -1 -17 -9z"/>
        <path d="M1456 1008 c-3 -7 -6 -52 -8 -100 -3 -52 -10 -93 -18 -103 -9 -11
-10 -19 -2 -27 14 -14 82 27 82 49 0 9 -6 13 -14 10 -11 -4 -13 12 -12 85 1
65 -3 92 -11 95 -7 3 -15 -1 -17 -9z"/>
        <path d="M2095 1014 c-6 -2 -9 -33 -7 -77 3 -52 -1 -84 -12 -112 -21 -50 -9
-62 38 -35 38 23 51 56 17 45 -18 -5 -18 -3 -9 37 11 51 7 140 -7 144 -5 1
-15 0 -20 -2z"/>
        <path d="M2184 1014 c-7 -3 -9 -30 -6 -77 3 -53 0 -83 -12 -111 -21 -51 -9
-63 38 -36 40 24 51 56 15 45 -17 -6 -20 -4 -16 12 15 51 18 89 12 129 -6 43
-9 47 -31 38z"/>
        <path d="M995 990 c-3 -5 -1 -10 4 -10 6 0 11 5 11 10 0 6 -2 10 -4 10 -3 0
-8 -4 -11 -10z"/>
        <path d="M1233 968 c-22 -11 -83 -133 -83 -166 0 -47 44 -53 110 -16 25 14 37
23 27 20 -11 -4 -31 -9 -45 -12 -21 -4 -24 -3 -12 5 8 6 11 11 6 11 -5 0 -18
-7 -28 -16 -16 -16 -18 -16 -24 0 -3 9 -4 26 -1 39 6 20 12 22 66 22 44 0 64
5 80 19 31 28 16 67 -36 94 -26 14 -31 14 -60 0z m2 -37 c-3 -6 -11 -11 -17
-11 -6 0 -6 6 2 15 14 17 26 13 15 -4z m58 -21 c-11 -10 -73 -23 -73 -15 0 9
64 34 73 28 5 -3 5 -9 0 -13z"/>
        <path d="M1953 962 c-12 -9 -33 -42 -47 -72 -55 -118 -19 -162 84 -104 25 14
37 23 27 20 -11 -4 -31 -9 -45 -12 -21 -4 -24 -3 -12 5 8 6 10 11 4 11 -6 0
-18 -7 -25 -16 -12 -14 -14 -14 -20 3 -4 10 -8 25 -8 33 -1 13 0 13 10 0 9
-12 10 -11 6 8 -3 12 -2 22 2 22 3 0 11 10 16 22 12 25 71 53 80 38 4 -6 -7
-13 -24 -16 -40 -8 -56 -27 -36 -44 21 -17 81 -4 99 21 12 18 12 24 -1 48 -15
25 -54 51 -77 51 -6 0 -21 -8 -33 -18z m1 -37 c-9 -14 -19 -23 -22 -20 -5 4
26 45 35 45 2 0 -4 -11 -13 -25z"/>
        <path d="M1527 956 c-29 -13 -27 -26 5 -26 22 0 23 -15 2 -93 -14 -54 -14 -61
0 -76 11 -11 16 -12 16 -3 0 7 5 10 10 7 6 -3 10 4 10 18 0 32 30 117 41 117
11 0 11 -5 0 -52 -10 -42 2 -59 34 -53 11 2 23 4 26 4 11 2 100 121 90 121 -5
0 -30 -16 -55 -35 -26 -19 -48 -35 -50 -35 -2 0 -1 20 2 45 5 50 -10 65 -47
45 -13 -7 -21 -7 -21 -1 0 20 -34 29 -63 17z m55 -58 c-7 -7 -12 -8 -12 -2 0
14 12 26 19 19 2 -3 -1 -11 -7 -17z m73 -68 c-3 -5 -11 -10 -16 -10 -6 0 -7 5
-4 10 3 6 11 10 16 10 6 0 7 -4 4 -10z"/>
        <path d="M1510 905 c-8 -9 -8 -15 -2 -15 12 0 26 19 19 26 -2 2 -10 -2 -17
-11z"/>
        <path d="M1148 885 c-3 -13 -2 -22 2 -20 11 7 20 45 10 45 -4 0 -10 -11 -12
-25z"/>
        <path d="M1191 824 c0 -11 3 -14 6 -6 3 7 2 16 -1 19 -3 4 -6 -2 -5 -13z"/>
    </g>
</svg>